# xmcd
#
# Track frame offsets: 
#        150
#        19857
#        38022
#        54482
#        70817
#        89122
#        107737
#        125867
#        144070
#        161945
#        177935
#        195510
#        210905
#
# Disc length: 3083 seconds
#
# Revision: 6
# Processed by: cddbd v1.5.2PL0 Copyright (c) Steve Scherf et al.
# Submitted via: ExactAudioCopy v1.0b3
#
DISCID=b50c090d
DTITLE=Haris Alexiou - To the end of your heaven
DYEAR=2003
DGENRE=greek
TTITLE0=The Wave (ΤΟ ΚΥΜΑ)
TTITLE1=I Want To Get Drunk Tonight (ΑΠΟΨΕ ΘΕΛΩ ΝΑ ΠΙΩ)
TTITLE2=Joy Brings Joy (Η ΧΑΡΑ ΦΕΡΝΕΙ ΧΑΡΑ)
TTITLE3=Too Much Togetherness Can Kill (ΤΟ ΠΟΛΥ ΜΑΖΙ ΣΚΟΤΩΝΕΙ)
TTITLE4=You Know me better (ΕΣΥ ΜΕ ΞΕΡΕΙΣ ΠΙΟ ΠΟΛΥ)
TTITLE5=My Friends At Dawn (ΟΙ ΦΙΛΟΙ ΜΟΥ ΧΑΡΑΜΑΤΑ)
TTITLE6=The Next day (ΜΙΑ ΜΕΡΑ ΜΕΤΑ)
TTITLE7=Everything In Our Minds (ΟΛΑ ΕΙΝΑΙ ΣΤΟ ΜΥΑΛΟ)
TTITLE8=If My Name Was Maria (ΝΑ ΜΕ ΛΕΝΕ ΜΑΡΙΑ)
TTITLE9=Better Days Are Coming (ΤΑ ΚΑΛΥΤΕΡΑ ΘΑ 'ΡΘΟΥΝ)
TTITLE10=We'll Grow Old Together (ΘΑ ΜΕΓΑΛΩΝΟΥΜΕ ΜΑΖΙ)
TTITLE11=My Arms, A Haven (ΕΝΑ ΛΙΜΑΝΙ Η ΑΓΚΑΛΙΑ ΜΟΥ)
TTITLE12=I Have To Love You (ΕΧΩ ΜΙΑ ΑΓΑΠΗ ΓΙΑ ΣΕΝΑ)
EXTD=EMI ESTIA Recordings\n(P) and (C) 2003 by Haris Productions, under 
EXTD=the exclusive licence of Minos-EMI SA\n7243 5  95497 2 9
EXTT0=Music-Lyrics: Giorgos Theofanous
EXTT1=Music: Antonis Vardis, Lyrics: Sofia Agyropoullou
EXTT2=Music-Lyrics: Giorgos Theofanous
EXTT3=Music-Lyrics: Haris Alexiou
EXTT4=Music-Lyrics: Haris Alexiou
EXTT5=Music-Lyrics: Haris Alexiou
EXTT6=Music: Ecinos and Ecinos, Lyrics: Tassos Vouyatzis
EXTT7=Music-Lyrics: Manolis Famellos
EXTT8=Music: Panagiotis Giatrakos, Lyrics: Haris Alexiou
EXTT9=Music-Lyrics: Giorgos Theofanous
EXTT10=Music - Layrics: Makis Seviloglou
EXTT11=Music-Lyrics: Giorgos Theofanous
EXTT12=Music: Solon Apostolakis, Lyrics: Tassos Vouyatzis
PLAYORDER=
